<mxfile host="app.diagrams.net" modified="2023-05-25T09:43:17.843Z" agent="Mozilla/5.0 (Windows NT 10.0; Win64; x64) AppleWebKit/537.36 (KHTML, like Gecko) Chrome/113.0.0.0 Safari/537.36" version="21.1.5" etag="Zop1BuxcSbwVDKzmSWi-" type="github">
  <diagram name="Page-1" id="j3KvLgWK7xS3gKhHs9De">
    <mxGraphModel>
      <root>
        <mxCell id="0" />
        <mxCell id="1" parent="0" />
      </root>
    </mxGraphModel>
  </diagram>
</mxfile>
